<?xml version="1.0" encoding="utf-8"?>
<!-- Generator: Adobe Illustrator 18.1.1, SVG Export Plug-In . SVG Version: 6.00 Build 0)  -->
<svg version="1.1" id="Layer_1" xmlns="http://www.w3.org/2000/svg" xmlns:xlink="http://www.w3.org/1999/xlink" x="0px" y="0px"
	 viewBox="0 0 216 216" enable-background="new 0 0 216 216" xml:space="preserve">
<g>
	<path fill="#005EA5" d="M53.6,150.3v-0.8c1.8-0.2,2-0.4,1.9-2.6l0-9.3h-0.1L50,150.1h-0.7l-4.9-12.3h-0.1l-0.3,6.3
		c-0.1,2-0.1,3.1,0,3.9c0.1,1.1,0.6,1.3,2.2,1.5v0.8h-5.8v-0.8c1.4-0.1,1.8-0.6,2-1.4c0.1-0.8,0.3-2,0.5-4.6l0.4-4.8
		c0.2-2.8,0-3.1-2.1-3.3v-0.8h5l4.7,10.6l4.7-10.6h4.9v0.8c-1.9,0.2-2,0.4-2,2.4l0.2,9.1c0,2.2,0.2,2.4,2.1,2.6v0.8H53.6z"/>
	<path fill="#005EA5" d="M79.2,135.4c-1.3,0.1-1.9,0.6-2.1,1.4c-0.1,0.8-0.2,1.6-0.2,3.4v2.6c0,2.6-0.4,4.6-1.7,6.1
		c-1.1,1.2-2.8,1.8-4.5,1.8c-1.6,0-3.1-0.3-4.3-1.3c-1.4-1.1-2-2.9-2-5.7V138c0-2.3-0.2-2.4-2-2.6v-0.8h7.3v0.8
		c-1.8,0.2-2,0.3-2,2.6v5.3c0,3.6,1.3,5.7,3.9,5.7c2.9,0,4.1-2.2,4.1-6.2v-2.6c0-1.7-0.1-2.6-0.2-3.4c-0.1-0.8-0.7-1.3-2.3-1.4v-0.8
		h6.1V135.4z"/>
	<path fill="#005EA5" d="M95.4,150.5c-0.1,0-0.4,0-0.7,0c-3-0.1-4-0.8-5-2.3c-0.6-1-1.3-2.3-2-3.6c-0.4-0.8-0.8-1-1.6-1.1h-0.5v3.5
		c0,2,0.2,2.2,2.1,2.4v0.8h-7.3v-0.8c1.8-0.2,2.1-0.4,2.1-2.4v-9.3c0-1.9-0.2-2.2-2-2.3v-0.8h6.8c2.1,0,3.3,0.2,4.3,0.9
		c1,0.6,1.6,1.7,1.6,3.2c0,2.1-1.4,3.3-3,3.9c0.3,0.7,1.3,2.3,2,3.4c0.9,1.3,1.4,2.1,1.9,2.6c0.5,0.6,0.9,0.8,1.5,1L95.4,150.5z
		 M86.3,142.6c1,0,1.8-0.2,2.4-0.7c0.8-0.7,1.2-1.6,1.2-2.9c0-2.6-1.5-3.5-2.9-3.5c-0.6,0-0.9,0.1-1.1,0.2c-0.2,0.1-0.2,0.4-0.2,0.9
		v5.9H86.3z"/>
	<path fill="#005EA5" d="M103.4,134.6c1.9,0,3.3,0.3,4.2,0.9c1.1,0.8,1.8,2,1.8,3.6c0,3.2-2.4,4.7-4.9,5c-0.4,0-0.8,0-1,0l-1.6-0.4
		v3.3c0,2.1,0.2,2.2,2.3,2.4v0.8h-7.5v-0.8c1.8-0.2,2-0.3,2-2.4v-9.3c0-2.1-0.2-2.2-1.9-2.4v-0.8H103.4z M101.8,142.8
		c0.3,0.1,0.8,0.2,1.3,0.2c0.9,0,2.8-0.6,2.8-3.9c0-2.7-1.5-3.6-3-3.6c-0.5,0-0.7,0.1-0.9,0.2c-0.1,0.1-0.2,0.4-0.2,0.8V142.8z"/>
	<path fill="#005EA5" d="M128.4,135.4c-1.9,0.2-2,0.3-2,2.4v9.3c0,2,0.2,2.2,2,2.3v0.8H121v-0.8c1.9-0.2,2.1-0.3,2.1-2.4v-4.5h-6.6
		v4.5c0,2.1,0.2,2.2,2,2.4v0.8h-7.2v-0.8c1.8-0.2,2-0.3,2-2.4v-9.3c0-2.1-0.2-2.2-2.1-2.4v-0.8h7.3v0.8c-1.7,0.2-1.9,0.3-1.9,2.4
		v3.6h6.6v-3.6c0-2.1-0.2-2.2-2-2.4v-0.8h7.3V135.4z"/>
	<path fill="#005EA5" d="M145.2,135.4c-1.5,0.2-2,0.6-2.9,2c-0.9,1.4-1.5,2.5-2.7,4.7c-0.3,0.7-0.4,0.9-0.4,1.7v3.1
		c0,2.2,0.2,2.3,2.3,2.5v0.8h-7.9v-0.8c2.1-0.2,2.3-0.3,2.3-2.5v-2.7c0-0.6-0.1-0.8-0.3-1.3c-0.7-1.3-1.5-3-3-5.5
		c-0.9-1.6-1.3-1.9-2.6-2.1v-0.8h6.9v0.8c-1.6,0.2-1.6,0.5-1.1,1.4c0.8,1.7,1.8,3.5,2.8,5.3c0.7-1.4,1.9-3.7,2.5-5.1
		c0.4-1,0.4-1.3-1.4-1.5v-0.8h5.6V135.4z"/>
	<path fill="#005EA5" d="M168.8,140.8c-1.5,0.2-2,0.5-2.9,1.6c-0.7,0.8-1.3,1.8-2,2.8c1.5,1.5,3.1,3.4,4.2,5.1l-0.1,0.3
		c-2.4,0-3.8-0.6-4.2-0.9c-0.3-0.3-1-1.1-1.9-2c-1.5,2-3,2.9-4.7,2.9c-3.3,0-5.1-2.4-5.1-4.5c0-2,1.2-2.9,3.4-4.4
		c-1-0.9-1.6-2-1.6-3.4c0-2.2,2-4,4.4-4c2.4,0,4.1,1.5,4.1,3.5c0,0.8-0.4,1.5-1,2c-0.5,0.4-1.2,0.9-1.9,1.4c0.7,0.6,2.1,1.8,3.8,3.4
		c0.4-0.6,0.8-1.3,1.2-2.1c0.5-1.1,0.3-1.4-1.3-1.7V140h5.7V140.8z M158.4,148.4c1.1,0,2.2-0.7,2.9-1.4c-1.8-1.8-3-2.9-5.1-4.7
		c-0.7,0.7-1,1.7-1,2.7C155.2,147.3,156.8,148.4,158.4,148.4L158.4,148.4z M158.1,135.2c-0.9,0-1.6,1-1.6,2.2c0,1.2,0.7,2,2.3,3.3
		c0.6-0.5,1.2-1.5,1.2-3C160,136.4,159.4,135.2,158.1,135.2L158.1,135.2z"/>
	<path fill="#005EA5" d="M21.7,167.2c-1.2,0.2-1.4,0.3-1.4,2v1.9c0,0.9,0,1.6,0.1,2.3c-1.5,0.4-3.6,0.9-5.5,0.9
		c-5.6,0-9.2-3.2-9.2-8c0-5.5,4.5-8.4,9.6-8.4c2,0,3.8,0.5,4.7,0.7c0.1,0.8,0.2,2.1,0.4,4l-0.9,0.2c-0.6-2.7-2.4-3.8-4.7-3.8
		c-2.9,0-5.4,2.6-5.4,7c0,3.7,1.8,7.5,5.8,7.5c0.5,0,1-0.1,1.4-0.3c0.4-0.2,0.6-0.6,0.6-1.3v-2.3c0-1.7-0.1-1.9-2.7-2.1v-0.8h7.3
		V167.2z"/>
	<path fill="#005EA5" d="M38.4,174.1c-0.1,0-0.4,0-0.7,0c-3.1-0.1-4-0.8-5-2.3c-0.6-1-1.3-2.3-2-3.6c-0.4-0.8-0.8-1-1.6-1.1h-0.5
		v3.5c0,2,0.2,2.2,2.1,2.4v0.8h-7.3V173c1.8-0.2,2.1-0.4,2.1-2.4v-9.3c0-1.9-0.2-2.2-2-2.3v-0.8h6.8c2.1,0,3.3,0.2,4.3,0.9
		c1,0.6,1.6,1.7,1.6,3.2c0,2.1-1.4,3.3-3,3.9c0.3,0.7,1.3,2.3,2,3.4c0.9,1.3,1.4,2.1,1.9,2.6c0.5,0.6,0.9,0.8,1.5,1L38.4,174.1z
		 M29.3,166.2c1,0,1.8-0.2,2.4-0.7c0.8-0.7,1.2-1.6,1.2-2.9c0-2.6-1.5-3.5-2.9-3.5c-0.6,0-0.9,0.1-1.1,0.2c-0.2,0.1-0.2,0.4-0.2,0.9
		v5.9H29.3z"/>
	<path fill="#005EA5" d="M48.7,173.9V173c1.4-0.2,1.5-0.5,1.2-1.6c-0.2-0.7-0.6-1.7-1-2.7h-4.6c-0.3,0.8-0.6,1.6-0.9,2.6
		c-0.3,1.2-0.3,1.5,1.5,1.7v0.8h-5.4l0-0.8c1.6-0.2,1.9-0.5,2.7-2.5l5-12.4l1.2-0.3c1.5,4.2,3,8.5,4.6,12.6c0.8,2.1,1.1,2.4,2.7,2.6
		v0.8H48.7z M46.6,162.2L46.6,162.2c-0.8,1.8-1.4,3.5-2,5.2h3.8L46.6,162.2z"/>
	<path fill="#005EA5" d="M73.8,159c-1.3,0.1-1.8,0.4-1.9,1.5c-0.1,0.8-0.2,1.9-0.2,4v9.6h-1.2l-10.1-12.1h-0.1v5.4
		c0,2.1,0.1,3.2,0.2,3.9c0.1,1.1,0.5,1.5,2.3,1.6v0.8H57V173c1.4-0.1,1.9-0.5,2-1.5c0.1-0.8,0.2-1.9,0.2-4v-5.1c0-1.6,0-2-0.5-2.6
		c-0.4-0.6-1-0.8-2-0.9v-0.8h4.5l9.2,10.6h0.1v-4.3c0-2.1-0.1-3.3-0.2-4c-0.1-1-0.6-1.5-2.4-1.5v-0.8h5.9V159z"/>
	<path fill="#005EA5" d="M88.5,162.3c-0.3-1.3-0.6-2.1-1.1-2.5c-0.4-0.4-1-0.6-2.4-0.6h-1.1v11.4c0,2.1,0.2,2.2,2.4,2.4v0.8h-7.9
		V173c2-0.2,2.3-0.3,2.3-2.4v-11.4h-0.8c-2,0-2.4,0.3-2.8,0.7c-0.4,0.4-0.7,1.2-1,2.4h-0.9c0.1-1.8,0.2-3.5,0.3-4.8H76
		c0.4,0.6,0.7,0.6,1.4,0.6h9.7c0.7,0,1-0.1,1.4-0.6h0.6c0,1,0.1,3.1,0.3,4.7L88.5,162.3z"/>
	<path fill="#005EA5" d="M103.5,169.8c-0.2,1-0.7,3.4-0.9,4.1H90.8V173c2.1-0.2,2.3-0.3,2.3-2.4v-9.3c0-2.1-0.2-2.2-2.1-2.4v-0.8
		h7.4v0.8c-1.9,0.2-2.1,0.3-2.1,2.4v9.4c0,1.1,0.1,1.6,0.6,1.8c0.4,0.2,1.1,0.2,1.8,0.2c1,0,1.9-0.2,2.5-0.8
		c0.5-0.5,0.9-1.3,1.4-2.5L103.5,169.8z"/>
	<path fill="#005EA5" d="M114.1,173.9V173c1.4-0.2,1.5-0.5,1.2-1.6c-0.2-0.7-0.6-1.7-1-2.7h-4.6c-0.3,0.8-0.6,1.6-0.9,2.6
		c-0.3,1.2-0.3,1.5,1.5,1.7v0.8h-5.4l0-0.8c1.6-0.2,1.9-0.5,2.7-2.5l5-12.4l1.2-0.3c1.5,4.2,3,8.5,4.6,12.6c0.8,2.1,1.1,2.4,2.7,2.6
		v0.8H114.1z M112,162.2L112,162.2c-0.8,1.8-1.4,3.5-2,5.2h3.8L112,162.2z"/>
	<path fill="#005EA5" d="M139.2,159c-1.3,0.1-1.8,0.4-1.9,1.5c-0.1,0.8-0.2,1.9-0.2,4v9.6h-1.2l-10.1-12.1h-0.1v5.4
		c0,2.1,0.1,3.2,0.2,3.9c0.1,1.1,0.5,1.5,2.3,1.6v0.8h-5.9V173c1.4-0.1,1.9-0.5,2-1.5c0.1-0.8,0.2-1.9,0.2-4v-5.1c0-1.6,0-2-0.5-2.6
		c-0.4-0.6-1-0.8-2-0.9v-0.8h4.5l9.2,10.6h0.1v-4.3c0-2.1-0.1-3.3-0.2-4c-0.1-1-0.6-1.5-2.4-1.5v-0.8h5.9V159z"/>
	<path fill="#005EA5" d="M148.1,158.2c3,0,5.4,0.6,6.9,2.1c1.2,1.1,2.1,2.9,2.1,5.1c0,3-1.2,5.1-3,6.5c-1.8,1.4-4.3,2-7.3,2h-6.2
		V173c1.9-0.2,2.2-0.3,2.2-2.4v-9.2c0-2.1-0.2-2.2-1.9-2.4v-0.8H148.1z M146,170.5c0,1.7,0.4,2.3,2.1,2.3c3.2,0,5.5-2.7,5.5-7
		c0-2.3-0.7-4.1-1.8-5.2c-1-1-2.3-1.5-3.9-1.5c-0.9,0-1.4,0.2-1.5,0.3c-0.2,0.2-0.3,0.6-0.3,1.3V170.5z"/>
	<path fill="#005EA5" d="M160.1,170c1.2,0,2.8,1.2,2.8,3.1c0,2.3-2.1,3.6-4.1,4l-0.3-0.8c1.5-0.6,2.2-1.3,2.2-2.3
		c0-0.8-0.6-1.5-1.8-1.8c-0.1,0-0.3-0.3-0.3-0.9C158.6,170.5,159.3,170,160.1,170L160.1,170z"/>
	<path fill="#005EA5" d="M177.2,158.2c1.9,0,3.3,0.3,4.2,0.9c1.1,0.8,1.8,2,1.8,3.6c0,3.2-2.4,4.7-4.9,5c-0.4,0-0.8,0-1,0l-1.6-0.4
		v3.3c0,2.1,0.2,2.2,2.3,2.4v0.8h-7.5v-0.8c1.8-0.2,2-0.3,2-2.4v-9.3c0-2.1-0.2-2.2-1.9-2.4v-0.8H177.2z M175.7,166.4
		c0.3,0.1,0.8,0.2,1.3,0.2c0.9,0,2.8-0.6,2.8-3.9c0-2.7-1.5-3.6-3-3.6c-0.5,0-0.8,0.1-0.9,0.2c-0.1,0.1-0.2,0.4-0.2,0.8V166.4z"/>
	<path fill="#005EA5" d="M183.7,174.2c-1,0-1.7-0.8-1.7-1.8c0-1.1,0.8-1.8,1.8-1.8c1,0,1.8,0.8,1.8,1.8
		C185.5,173.4,184.8,174.2,183.7,174.2L183.7,174.2z"/>
	<path fill="#005EA5" d="M196.8,173.9V173c1.4-0.2,1.5-0.5,1.2-1.6c-0.2-0.7-0.6-1.7-1-2.7h-4.6c-0.3,0.8-0.6,1.6-0.9,2.6
		c-0.3,1.2-0.3,1.5,1.5,1.7v0.8h-5.4l0-0.8c1.6-0.2,1.9-0.5,2.7-2.5l5-12.4l1.2-0.3c1.5,4.2,3,8.5,4.6,12.6c0.8,2.1,1.1,2.4,2.7,2.6
		v0.8H196.8z M194.7,162.2L194.7,162.2c-0.7,1.8-1.4,3.5-2,5.2h3.8L194.7,162.2z"/>
	<path fill="#005EA5" d="M207.4,174.2c-1,0-1.7-0.8-1.7-1.8c0-1.1,0.8-1.8,1.8-1.8c1,0,1.8,0.8,1.8,1.8
		C209.3,173.4,208.5,174.2,207.4,174.2L207.4,174.2z"/>
</g>
<g>
	<path fill="#005EA5" d="M63.5,84.7h9.9C76,71.8,85.4,61.5,97.7,57.5l-1.2-9.8C79.4,52.4,66.3,66.9,63.5,84.7z"/>
	<path fill="#005EA5" d="M119.6,47.4l-1.1,9.7c12.8,3.7,22.7,14.3,25.3,27.5h9.9C150.9,66.5,137.3,51.8,119.6,47.4z"/>
	<path fill="#005EA5" d="M108.6,65.5c-12,0-22.1,8.2-25.2,19.2h1.6C88,74.5,97.5,67,108.6,67c11.1,0,20.6,7.5,23.6,17.7h1.6
		C130.8,73.6,120.6,65.5,108.6,65.5z"/>
</g>
<polygon fill="#005EA5" points="98.5,41.4 117.6,41.4 115.3,61.1 100.8,61.1 "/>
<g>
	<path fill="#005EA5" d="M77.6,117.3v-1.4c3.3-0.3,3.5-0.6,3.4-4.7l-0.1-16.7h-0.2L71,117h-1.1l-9-22h-0.1l-0.6,11.4
		c-0.2,3.5-0.2,5.5,0,7c0.1,1.9,1,2.3,3.9,2.5v1.4H54v-1.4c2.4-0.2,3.2-0.9,3.5-2.5c0.3-1.4,0.6-3.4,0.8-7.9l0.6-8.6
		c0.3-5.1,0-5.5-3.7-5.9v-1.4h8.1l8.7,19.5l8.9-19.5h8.1v1.4c-3.5,0.3-3.7,0.6-3.7,4.4l0.4,15.7c0.1,4.1,0.3,4.4,3.7,4.7v1.4H77.6z"
		/>
	<path fill="#005EA5" d="M127.9,100.6c-2.8,0.3-3.5,0.9-5,2.9c-1.2,1.6-2.2,3.2-3.6,5.2c2.4,2.3,5.5,5.9,7.2,8.7l-0.3,0.5
		c-3.5-0.1-6-1.1-6.5-1.6c-0.6-0.6-2-2.2-3.5-3.7c-2.8,3.7-5.6,5.3-8.5,5.3c-5.6,0-8.7-4.2-8.7-7.8c0-3.7,2.4-5.3,6.1-7.9
		c-1.8-1.7-2.9-3.6-2.9-6c0-3.8,3.4-7,7.4-7c4,0,6.9,2.6,6.9,6.1c0,1.6-0.8,2.7-1.8,3.6c-0.8,0.7-2,1.5-3.4,2.5
		c1.3,1.1,3.9,3.4,6.8,6.2c0.8-1.3,1.5-2.5,2.3-4.1c0.8-1.9,0.5-2.5-2.5-2.9l0-1.4h9.9V100.6z M109.5,114.4c2.2,0,4.4-1.4,5.6-3
		c-2.8-2.9-5.1-5.1-8.8-8.2c-1.7,1.5-2.5,3.4-2.5,5.2C103.7,112.5,106.6,114.4,109.5,114.4L109.5,114.4z M109.2,90.8
		c-1.7,0-3.1,1.7-3.1,3.9c0,2.1,1.2,3.6,3.9,5.7c1.4-1.1,2.5-2.8,2.5-5.3C112.6,92.8,111.4,90.8,109.2,90.8L109.2,90.8z"/>
	<path fill="#005EA5" d="M162.3,105.6c-2.3,0.4-2.5,0.6-2.5,3.3v3.4c0,1.5,0,2.9,0.3,4c-2.6,0.6-6.2,1.5-9.6,1.5
		c-9.7,0-16-5.6-16-14.1c0-9.8,7.9-14.7,16.6-14.7c3.5,0,6.8,0.8,8.2,1.2c0.1,1.4,0.3,3.7,0.7,6.8l-1.4,0.3
		c-1.1-4.9-4.2-6.7-8.2-6.7c-5.6,0-10.2,4.7-10.2,12.4c0,6.3,3.3,13.2,10.7,13.2c1.1,0,2.2-0.2,2.8-0.6c0.7-0.4,1.1-1.1,1.1-2.5
		v-3.9c0-3-0.3-3.3-4.6-3.7v-1.4h12V105.6z"/>
</g>
</svg>
